HIERARCHY
ROOT root
{
	OFFSET 0.000000 0.000000 0.000000
	CHANNELS 6 Xposition Yposition Zposition Zrotation Yrotation Xrotation
	JOINT lhip
	{
		OFFSET 0.058581 -0.082280 -0.017664
		CHANNELS 3 Zrotation Yrotation Xrotation
		JOINT lknee
		{
			OFFSET 0.043451 -0.386469 0.008037
			CHANNELS 3 Zrotation Yrotation Xrotation
			JOINT lankle
			{
				OFFSET -0.014790 -0.426874 -0.037428
				CHANNELS 3 Zrotation Yrotation Xrotation
				JOINT ltoe
				{
					OFFSET 0.041054 -0.060286 0.122042
					CHANNELS 3 Zrotation Yrotation Xrotation
					End Site
					{
						OFFSET 0.000000 0.000000 0.000000
					}
				}
			}
		}
	}
	JOINT rhip
	{
		OFFSET -0.060310 -0.090513 -0.013543
		CHANNELS 3 Zrotation Yrotation Xrotation
		JOINT rknee
		{
			OFFSET -0.043257 -0.383688 -0.004843
			CHANNELS 3 Zrotation Yrotation Xrotation
			JOINT rankle
			{
				OFFSET 0.019056 -0.420046 -0.034562
				CHANNELS 3 Zrotation Yrotation Xrotation
				JOINT rtoe
				{
					OFFSET -0.034840 -0.062106 0.130323
					CHANNELS 3 Zrotation Yrotation Xrotation
					End Site
					{
						OFFSET 0.000000 0.000000 0.000000
					}
				}
			}
		}
	}
	JOINT lowerback
	{
		OFFSET 0.004439 0.124404 -0.038385
		CHANNELS 3 Zrotation Yrotation Xrotation
		JOINT upperback
		{
			OFFSET 0.004488 0.137956 0.026820
			CHANNELS 3 Zrotation Yrotation Xrotation
			JOINT chest
			{
				OFFSET -0.002265 0.056032 0.002855
				CHANNELS 3 Zrotation Yrotation Xrotation
				JOINT lowerneck
				{
					OFFSET -0.013390 0.211636 -0.033468
					CHANNELS 3 Zrotation Yrotation Xrotation
					JOINT upperneck
					{
						OFFSET 0.010113 0.088937 0.050410
						CHANNELS 3 Zrotation Yrotation Xrotation
						End Site
						{
							OFFSET 0.000000 0.000000 0.000000
						}
					}
				}
				JOINT lclavicle
				{
					OFFSET 0.071702 0.114000 -0.018898
					CHANNELS 3 Zrotation Yrotation Xrotation
					JOINT lshoulder
					{
						OFFSET 0.122921 0.045205 -0.019046
						CHANNELS 3 Zrotation Yrotation Xrotation
						JOINT lelbow
						{
							OFFSET 0.255332 -0.015649 -0.022946
							CHANNELS 3 Zrotation Yrotation Xrotation
							JOINT lwrist
							{
								OFFSET 0.265709 0.012698 -0.007375
								CHANNELS 3 Zrotation Yrotation Xrotation
								End Site
								{
									OFFSET 0.000000 0.000000 0.000000
								}
							}
						}
					}
				}
				JOINT rclavicle
				{
					OFFSET -0.082954 0.112472 -0.023707
					CHANNELS 3 Zrotation Yrotation Xrotation
					JOINT rshoulder
					{
						OFFSET -0.113228 0.046853 -0.008472
						CHANNELS 3 Zrotation Yrotation Xrotation
						JOINT relbow
						{
							OFFSET -0.260127 -0.014369 -0.031269
							CHANNELS 3 Zrotation Yrotation Xrotation
							JOINT rwrist
							{
								OFFSET -0.269108 0.006794 -0.006027
								CHANNELS 3 Zrotation Yrotation Xrotation
								End Site
								{
									OFFSET 0.000000 0.000000 0.000000
								}
							}
						}
					}
				}
			}
		}
	}
}
MOTION
Frames: 15
Frame Time: 0.033333
-0.051351 -0.579660 0.792428 -85.865303 7.565505 98.879370 18.876872 21.608464 -56.158402 -13.971387 22.601066 74.936382 -0.696343 -5.693447 -23.416430 0.000000 -0.000000 0.000000 -19.845976 -19.401213 -45.095723 -3.216611 -17.217471 79.527789 -0.053319 -9.646169 -20.650588 0.000000 -0.000000 0.000000 1.716668 5.803455 50.227016 3.429984 -0.174192 -0.842841 6.167392 -0.454492 -2.292403 -0.539147 7.143920 -19.256458 3.259263 7.937658 -24.148258 -16.004227 -5.028856 -0.051687 -24.288683 4.889640 -14.066728 71.528634 -61.205853 -60.481058 22.744838 -4.974480 -25.092636 14.588136 7.324625 -4.205280 17.915939 8.248291 -21.505462 -64.119212 41.682840 -76.133739 -22.227064 9.790398 -32.715325 
-0.068272 -0.497969 0.758328 -86.951397 9.104355 98.606631 22.357615 23.058692 -56.057891 -7.065905 20.151565 76.283585 2.945280 3.790942 -36.218432 0.000000 -0.000000 0.000000 -26.410085 -23.087204 -43.265702 -6.201392 -14.190237 63.507517 1.192056 -13.830695 -17.666124 0.000000 -0.000000 0.000000 4.369002 4.183623 52.257445 2.687510 0.954679 -3.157017 6.722004 -0.124263 -1.327800 -1.331784 5.752653 -22.085802 3.087853 10.167550 -24.575488 -17.968979 -4.265060 1.604965 -28.513869 2.640619 -16.225365 70.448617 -63.042328 -56.958136 25.836807 -2.977132 -28.234519 14.754092 7.019350 -2.386767 18.761570 8.210109 -21.805922 -69.136407 44.053236 -78.012853 -25.267123 10.105220 -31.679091 
-0.083488 -0.424379 0.737213 -88.829784 6.858961 95.198928 28.681809 26.052963 -52.917434 -8.402799 18.009046 78.940705 -4.118334 -0.146919 -28.544039 0.000000 -0.000000 0.000000 -32.411537 -27.745645 -41.363460 -6.182731 -14.254096 54.194304 2.811499 -11.538767 -15.134183 0.000000 -0.000000 0.000000 3.919312 5.354958 56.360057 2.873906 -0.248766 -1.406435 7.871142 -0.820153 -2.992106 -2.558430 7.469169 -23.699040 1.899365 10.407535 -25.595141 -19.934079 -5.842845 2.725549 -28.574808 2.859964 -17.043677 59.797812 -60.454976 -48.430583 26.421127 -3.173307 -30.110259 15.622968 8.637310 -2.403918 15.762414 9.342450 -22.223094 -71.367274 46.266466 -80.924387 -26.733159 8.544809 -32.716836 
-0.097435 -0.348349 0.716952 -91.353295 5.068343 94.085291 32.824973 28.992171 -47.202452 -10.140201 13.479943 76.067135 -5.309946 -2.931612 -31.396458 0.000000 -0.000000 0.000000 -33.674866 -32.481522 -44.917712 -5.556513 -17.215565 54.225356 2.727852 -10.610760 -15.984930 0.000000 -0.000000 0.000000 4.290226 2.073607 56.017128 1.000811 0.133460 -0.973943 6.518924 -0.743345 -3.586183 -3.921629 6.557146 -24.658540 1.632411 9.858708 -22.977069 -20.717930 -6.546821 3.301018 -30.950832 2.712050 -17.683428 41.112762 -54.797823 -31.827813 27.407718 -3.517205 -29.921301 13.745362 10.575406 -1.348915 13.799098 10.803332 -23.896611 -71.023141 48.044749 -80.536206 -26.694964 9.741132 -32.012282 
-0.113589 -0.263975 0.706251 -95.181746 2.082153 92.818133 38.575393 30.506863 -39.936987 -11.503453 9.182909 73.089502 -12.519352 -7.042334 -22.328774 0.000000 -0.000000 0.000000 -31.305092 -34.044783 -51.463618 -4.813347 -15.593743 63.128456 2.435495 -6.357165 -10.029599 0.000000 -0.000000 0.000000 3.281068 -0.817435 54.863960 -1.630058 1.285618 -0.624090 4.560404 -0.517795 -4.352518 -6.020023 6.395479 -20.486527 0.140859 14.413452 -23.584987 -24.722438 -6.914932 3.638807 -32.172980 5.018098 -16.842650 37.422192 -51.067488 -32.324423 26.730915 -1.787824 -31.452258 13.325061 13.591050 -0.692760 8.120242 11.717288 -25.842204 -67.446734 49.449987 -79.225377 -29.009610 11.231558 -29.419652 
-0.132447 -0.176953 0.711568 -97.906547 -1.142452 90.009924 41.733999 26.951559 -28.917551 -12.162463 4.078960 63.830921 -16.345393 -3.211824 -15.814346 0.000000 -0.000000 0.000000 -32.853380 -32.401848 -52.616352 -4.986612 -16.416534 73.376786 2.117381 -6.010594 -9.233456 0.000000 -0.000000 0.000000 3.611637 -4.932316 54.943674 -5.223436 2.486896 0.488635 1.336917 -0.566589 -4.639827 -9.145814 4.827395 -17.686936 -0.839876 16.617162 -22.697870 -27.761210 -6.431798 2.347174 -34.299495 6.590133 -16.104727 42.669054 -51.457172 -39.167538 26.270897 -1.468802 -32.798391 11.786241 16.709953 0.345501 4.015512 11.397170 -28.353761 -65.134883 50.200409 -79.923093 -29.940356 11.725336 -27.767383 
-0.151349 -0.082780 0.725050 -99.894895 -4.291798 88.936522 42.740819 21.027347 -19.966845 -8.867655 -0.201182 52.093386 -20.576325 1.327333 -2.045448 0.000000 -0.000000 0.000000 -31.217774 -32.764580 -53.072776 -4.023554 -17.518498 81.307533 -2.417736 -5.227260 -18.507767 0.000000 -0.000000 0.000000 3.116872 -6.585073 50.299367 -7.729957 3.492583 3.855322 -1.439580 -0.681047 -4.183292 -11.015250 6.097665 -14.188082 -1.990649 16.019499 -20.955787 -27.943093 -4.656405 0.407931 -35.213788 7.016636 -14.251687 46.706145 -53.468027 -40.880760 23.894442 -1.893832 -34.379269 9.950374 17.454175 1.606324 3.681409 12.643542 -30.416112 -63.415290 50.504494 -77.709886 -31.099963 12.253861 -26.606754 
-0.165884 0.020812 0.743418 -100.357417 -6.435550 90.033747 41.184989 16.390264 -17.091166 -5.841919 -1.895672 41.723817 -16.221471 7.535961 5.596444 0.000000 -0.000000 0.000000 -28.931538 -31.407061 -51.431454 -4.838634 -21.417533 86.819157 -4.714530 -6.991102 -27.841942 0.000000 -0.000000 0.000000 1.513369 -4.681106 44.368336 -8.638188 3.597639 4.933354 -2.277022 -0.837700 -3.106037 -9.448660 7.660636 -9.168839 -1.591851 14.248585 -19.017433 -25.362725 -3.159033 -0.872492 -33.925786 6.669173 -12.089057 48.216466 -54.933761 -42.827177 22.089393 -1.388593 -35.188173 9.865095 16.013882 0.723080 7.017162 13.814547 -27.702322 -64.533015 49.982182 -77.008044 -31.170574 12.807928 -25.363833 
-0.175026 0.126009 0.763802 -98.205577 -7.015905 91.898573 38.309146 17.296022 -23.333531 -4.641654 3.610581 42.666232 -9.978881 8.477885 -1.870379 0.000000 -0.000000 0.000000 -23.395035 -30.894390 -49.252591 -4.714527 -24.660708 89.089659 -6.314550 -9.800635 -33.986208 0.000000 -0.000000 0.000000 -0.640730 -2.062384 40.734199 -7.638610 2.076261 3.186422 -1.579042 -1.091170 -1.241787 -6.961215 7.797618 -6.098437 0.437877 12.978514 -17.691666 -22.737924 -2.674778 -1.504787 -31.243539 5.034557 -12.021461 50.766175 -55.416877 -45.809090 21.708195 -0.778244 -34.642909 10.470141 12.758800 -0.876496 10.420779 13.912290 -24.330488 -66.367593 49.623503 -76.984753 -29.958085 11.996535 -26.605220 
-0.179673 0.231183 0.788516 -95.457403 -5.884428 92.026623 34.818793 18.636880 -31.885158 -5.436003 10.277325 52.568027 -11.370570 5.413469 -4.010628 0.000000 -0.000000 0.000000 -18.447503 -29.354613 -46.471588 -5.283644 -27.159144 92.790208 -3.511084 -4.760152 -29.143405 0.000000 -0.000000 0.000000 -2.180703 1.078256 42.100878 -5.310145 0.106752 2.145404 -0.543132 -1.483322 -1.456588 -4.874515 9.434738 -4.854585 2.781329 9.847837 -17.612170 -19.932407 -4.340104 -2.068819 -28.265581 3.641460 -12.606362 53.252490 -54.356716 -47.346171 20.318236 -2.348716 -32.524823 11.408859 9.893638 -3.310781 12.953174 12.392170 -23.342234 -66.447726 49.518837 -74.653120 -28.659692 10.435726 -28.461384 
-0.183620 0.331255 0.809920 -93.842789 -3.278405 91.903770 30.300339 20.808461 -40.444486 -6.348777 16.710696 65.422975 -10.936879 3.124063 -6.520082 0.000000 -0.000000 0.000000 -15.683055 -26.480579 -44.721592 -3.923196 -29.511401 95.251759 3.048765 3.849515 -13.640099 0.000000 -0.000000 0.000000 -2.884122 3.220856 44.377546 -2.878537 -1.505443 2.346176 0.510692 -1.318119 -2.431065 -3.270172 10.612578 -5.281236 4.239064 9.220592 -18.776732 -18.044294 -6.198827 -2.797619 -25.103660 4.034237 -13.382922 54.893119 -53.041464 -49.916723 19.256051 -4.561049 -28.480947 12.118945 8.768213 -4.558481 14.573243 11.518221 -22.945324 -65.664659 47.991309 -74.380831 -27.547810 9.695455 -30.137948 
-0.190188 0.427393 0.821937 -92.707378 0.729899 92.867225 25.369458 23.597838 -48.456100 -5.803321 23.125165 77.686386 -9.459517 0.242491 -7.690757 0.000000 -0.000000 0.000000 -12.332697 -23.484986 -44.532052 -2.657192 -31.220977 95.559195 4.956693 7.142512 -7.050576 0.000000 -0.000000 0.000000 -2.754823 4.025694 44.800299 -0.282180 -2.289173 1.828809 2.062563 -0.817307 -2.328627 -1.678124 11.807484 -6.166509 4.172026 9.795465 -19.594673 -17.589104 -6.686492 -3.224436 -23.451224 4.623312 -13.783860 55.512933 -52.088598 -51.612130 18.536014 -5.766767 -25.817698 13.715326 8.343913 -3.877094 14.508607 11.823287 -23.024811 -64.882820 47.264689 -73.854567 -26.395536 9.213678 -32.275475 
-0.198064 0.520035 0.824137 -91.767884 4.269652 93.378137 20.192891 24.010330 -53.116715 -8.399045 26.656870 83.256891 -11.889011 -6.349182 -5.910659 0.000000 -0.000000 0.000000 -11.236853 -20.634460 -44.330577 -6.334983 -28.409077 95.541402 -0.094478 -1.686853 -11.834278 0.000000 -0.000000 0.000000 -1.282581 4.089295 45.626667 1.261273 -2.394194 0.672577 3.121951 -0.788428 -2.091099 -0.710500 10.484268 -7.357728 4.347621 10.774508 -19.253878 -17.317030 -6.964709 -2.936407 -23.261059 4.179460 -14.972386 55.165397 -51.230382 -51.283226 18.097244 -6.138976 -25.449222 14.382810 8.090097 -3.729138 16.893172 11.396231 -21.523216 -65.959325 46.964208 -73.849127 -24.813868 9.393061 -32.208859 
-0.208367 0.608123 0.819157 -91.366946 7.227609 92.015925 16.457615 22.707052 -51.393598 -13.797099 23.900518 78.979241 -15.493362 -11.664604 -2.066654 0.000000 -0.000000 0.000000 -14.053314 -18.018137 -42.067932 -6.721340 -22.045394 89.566212 -2.632693 -4.641798 -15.837502 0.000000 -0.000000 0.000000 1.141035 3.442315 47.918974 2.011765 -2.069920 1.148665 3.797622 -0.616475 -2.080346 -0.271293 10.168887 -10.378192 3.783554 10.032067 -19.637316 -18.564649 -7.533197 -3.850040 -23.372204 2.854367 -14.856600 55.905099 -49.852509 -52.996187 18.807667 -6.321368 -24.826508 15.761515 8.382868 -4.263795 17.841995 10.211761 -19.732146 -68.566687 46.507289 -76.312153 -24.970933 9.491143 -30.924425 
-0.219929 0.693316 0.805432 -92.242781 9.405628 91.302163 16.233210 21.188122 -46.462024 -10.878645 19.538886 73.676878 5.390975 4.184679 -28.066246 0.000000 -0.000000 0.000000 -18.610530 -16.573534 -40.735909 -3.451424 -16.420122 77.506752 -1.912341 -11.435523 -18.009616 0.000000 -0.000000 0.000000 1.873335 2.550771 48.566980 2.264507 -0.697022 -0.106689 4.928513 -0.575509 0.084519 0.725113 7.284944 -14.927450 3.026660 11.611436 -18.185613 -19.953287 -6.206048 -2.166587 -25.125325 -0.607096 -17.056156 55.166400 -50.867058 -51.031138 21.839112 -4.478471 -26.838279 16.485254 7.633553 -3.329485 18.983507 10.862836 -17.558771 -70.572235 45.447113 -77.389693 -23.400864 10.115078 -30.114833 
